<?xml version="1.0" encoding="iso-8859-1"?>
<!-- Generator: Adobe Illustrator 16.0.0, SVG Export Plug-In . SVG Version: 6.00 Build 0)  -->
<!DOCTYPE svg PUBLIC "-//W3C//DTD SVG 1.1//EN" "http://www.w3.org/Graphics/SVG/1.1/DTD/svg11.dtd">
<svg version="1.1" id="Layer_1" xmlns="http://www.w3.org/2000/svg" xmlns:xlink="http://www.w3.org/1999/xlink" x="0px" y="0px"
	 width="196.336px" height="196.339px" viewBox="0 0 196.336 196.339" style="enable-background:new 0 0 196.336 196.339;"
	 xml:space="preserve">
<g>
	<polygon style="fill:none;stroke:#000000;stroke-miterlimit:10;" points="68.815,147.449 82.45,159.754 103.823,159.754 
		68.815,128.161 	"/>
	<polygon style="fill:none;stroke:#000000;stroke-miterlimit:10;" points="99.67,36.587 78.72,36.587 68.815,47.346 68.815,70.103 	
		"/>
	<polygon style="fill:none;stroke:#000000;stroke-miterlimit:10;" points="90.313,101.528 150.099,36.587 129.148,36.587 
		69.363,101.528 132.609,159.754 153.56,159.754 	"/>
	<rect x="42.775" y="36.587" style="fill:red;stroke:#000000;stroke-miterlimit:10;" width="15.753" height="123.167"/>
	<path style="fill:none;stroke:#000000;stroke-miterlimit:10;" d="M195.836,98.17c0,53.854-43.813,97.669-97.669,97.669"/>
	<path style="fill:none;stroke:#000000;stroke-miterlimit:10;" d="M0.5,98.17C0.5,44.316,44.314,0.5,98.167,0.5
		c53.855,0,97.669,43.816,97.669,97.67"/>
	<path style="fill:none;stroke:#000000;stroke-miterlimit:10;" d="M98.167,195.839C44.314,195.839,0.5,152.025,0.5,98.17"/>
	<path style="fill:none;stroke:#000000;stroke-miterlimit:10;" d="M5.201,98.17c0,51.265,41.705,92.968,92.966,92.968
		c51.263,0,92.968-41.703,92.968-92.968c0-51.262-41.705-92.965-92.968-92.965"/>
	<path style="fill:none;stroke:#000000;stroke-miterlimit:10;" d="M98.167,5.205c-51.261,0-92.966,41.703-92.966,92.965"/>
</g>
</svg>
